<?xml version="1.0" encoding="UTF-8" standalone="no"?>
<svg
   class="h-6 w-6"
   fill="none"
   viewBox="0 0 24 24"
   stroke="currentColor"
   stroke-width="2"
   version="1.1"
   id="svg12"
   sodipodi:docname="qrcode (2).svg"
   inkscape:version="1.2 (dc2aedaf03, 2022-05-15)"
   xmlns:inkscape="http://www.inkscape.org/namespaces/inkscape"
   xmlns:sodipodi="http://sodipodi.sourceforge.net/DTD/sodipodi-0.dtd"
   xmlns="http://www.w3.org/2000/svg"
   xmlns:svg="http://www.w3.org/2000/svg">
  <defs
     id="defs16" />
  <sodipodi:namedview
     id="namedview14"
     pagecolor="#000000"
     bordercolor="#000000"
     borderopacity="0.25"
     inkscape:showpageshadow="2"
     inkscape:pageopacity="0"
     inkscape:pagecheckerboard="false"
     inkscape:deskcolor="#d1d1d1"
     showgrid="false"
     showborder="true"
     inkscape:zoom="22.627417"
     inkscape:cx="6.9605824"
     inkscape:cy="18.252194"
     inkscape:window-width="2560"
     inkscape:window-height="1351"
     inkscape:window-x="2551"
     inkscape:window-y="-9"
     inkscape:window-maximized="1"
     inkscape:current-layer="svg12" />
  <rect
     style="fill:#ffffff;stroke:none;stroke-width:0;stroke-dasharray:none"
     id="rect415"
     width="24.000351"
     height="24.000351"
     x="0"
     y="-24.000351"
     transform="scale(1,-1)"
     ry="4.3509846" />
  <path
     stroke-linecap="round"
     stroke-linejoin="round"
     d="M12 4v1m6 11h2m-6 0h-2v4m0-11v3m0 0h.01M12 12h4.01M16 20h4M4 12h4m12 0h.01M5 8h2a1 1 0 001-1V5a1 1 0 00-1-1H5a1 1 0 00-1 1v2a1 1 0 001 1zm12 0h2a1 1 0 001-1V5a1 1 0 00-1-1h-2a1 1 0 00-1 1v2a1 1 0 001 1zM5 20h2a1 1 0 001-1v-2a1 1 0 00-1-1H5a1 1 0 00-1 1v2a1 1 0 001 1z"
     id="path10" />
</svg>
